<svg width="144" height="25" viewBox="0 0 144 25" fill="none" xmlns="http://www.w3.org/2000/svg">
<g clip-path="url(#clip0_7886_76)">
<path d="M24 12.4619C24 5.83449 18.6274 0.461914 12 0.461914C5.37258 0.461914 0 5.83449 0 12.4619C0 18.4514 4.3882 23.4159 10.125 24.3161V15.9307H7.07812V12.4619H10.125V9.81816C10.125 6.81066 11.9166 5.14941 14.6576 5.14941C15.9701 5.14941 17.3438 5.38379 17.3438 5.38379V8.33691H15.8306C14.34 8.33691 13.875 9.26199 13.875 10.2119V12.4619H17.2031L16.6711 15.9307H13.875V24.3161C19.6118 23.4159 24 18.4514 24 12.4619Z" fill="#9CA3AF"/>
</g>
<path d="M47.5502 22.2126C56.6045 22.2126 61.5583 14.7094 61.5583 8.20451C61.5583 7.99357 61.5536 7.77794 61.5442 7.56701C62.5079 6.87011 63.3395 6.0069 64 5.01794C63.1025 5.41725 62.1496 5.67803 61.1739 5.79138C62.2013 5.17555 62.9705 4.20812 63.3391 3.06841C62.3726 3.6412 61.3156 4.04526 60.2134 4.26326C59.4708 3.47421 58.489 2.95176 57.4197 2.7767C56.3504 2.60163 55.2532 2.7837 54.2977 3.29474C53.3423 3.80579 52.5818 4.61735 52.1338 5.60396C51.6859 6.59056 51.5754 7.69726 51.8195 8.75294C49.8625 8.65474 47.9479 8.14635 46.2 7.26075C44.452 6.37514 42.9097 5.13208 41.673 3.61216C41.0444 4.69589 40.8521 5.97829 41.135 7.19874C41.418 8.41918 42.1551 9.48609 43.1964 10.1826C42.4146 10.1578 41.65 9.94733 40.9656 9.56857V9.62951C40.9649 10.7668 41.3581 11.8692 42.0783 12.7494C42.7985 13.6296 43.8013 14.2332 44.9162 14.4576C44.1921 14.6558 43.432 14.6846 42.6948 14.542C43.0095 15.5201 43.6216 16.3755 44.4458 16.989C45.27 17.6024 46.2651 17.9432 47.2923 17.9639C45.5484 19.3338 43.3942 20.0768 41.1766 20.0733C40.7833 20.0727 40.3904 20.0486 40 20.0011C42.2529 21.4464 44.8735 22.214 47.5502 22.2126Z" fill="#9CA3AF"/>
<g clip-path="url(#clip1_7886_76)">
<path d="M92 2.62285C95.2063 2.62285 95.5859 2.63691 96.8469 2.69316C98.0188 2.74473 98.6516 2.9416 99.0734 3.10566C99.6313 3.32129 100.034 3.58379 100.452 4.00098C100.873 4.42285 101.131 4.82129 101.347 5.3791C101.511 5.80098 101.708 6.43848 101.759 7.60566C101.816 8.87129 101.83 9.25098 101.83 12.4525C101.83 15.6588 101.816 16.0385 101.759 17.2994C101.708 18.4713 101.511 19.1041 101.347 19.526C101.131 20.0838 100.869 20.4869 100.452 20.9041C100.03 21.326 99.6313 21.5838 99.0734 21.7994C98.6516 21.9635 98.0141 22.1604 96.8469 22.2119C95.5813 22.2682 95.2016 22.2822 92 22.2822C88.7938 22.2822 88.4141 22.2682 87.1531 22.2119C85.9813 22.1604 85.3484 21.9635 84.9266 21.7994C84.3688 21.5838 83.9656 21.3213 83.5484 20.9041C83.1266 20.4822 82.8688 20.0838 82.6531 19.526C82.4891 19.1041 82.2922 18.4666 82.2406 17.2994C82.1844 16.0338 82.1703 15.6541 82.1703 12.4525C82.1703 9.24629 82.1844 8.8666 82.2406 7.60566C82.2922 6.43379 82.4891 5.80098 82.6531 5.3791C82.8688 4.82129 83.1313 4.41816 83.5484 4.00098C83.9703 3.5791 84.3688 3.32129 84.9266 3.10566C85.3484 2.9416 85.9859 2.74473 87.1531 2.69316C88.4141 2.63691 88.7938 2.62285 92 2.62285ZM92 0.461914C88.7422 0.461914 88.3344 0.475977 87.0547 0.532227C85.7797 0.588477 84.9031 0.794726 84.1438 1.09004C83.3516 1.39941 82.6813 1.80723 82.0156 2.47754C81.3453 3.14316 80.9375 3.81348 80.6281 4.60098C80.3328 5.36504 80.1266 6.23691 80.0703 7.51191C80.0141 8.79629 80 9.2041 80 12.4619C80 15.7197 80.0141 16.1275 80.0703 17.4072C80.1266 18.6822 80.3328 19.5588 80.6281 20.3182C80.9375 21.1104 81.3453 21.7807 82.0156 22.4463C82.6813 23.1119 83.3516 23.5244 84.1391 23.8291C84.9031 24.1244 85.775 24.3307 87.05 24.3869C88.3297 24.4432 88.7375 24.4572 91.9953 24.4572C95.2531 24.4572 95.6609 24.4432 96.9406 24.3869C98.2156 24.3307 99.0922 24.1244 99.8516 23.8291C100.639 23.5244 101.309 23.1119 101.975 22.4463C102.641 21.7807 103.053 21.1104 103.358 20.3229C103.653 19.5588 103.859 18.6869 103.916 17.4119C103.972 16.1322 103.986 15.7244 103.986 12.4666C103.986 9.20879 103.972 8.80098 103.916 7.52129C103.859 6.24629 103.653 5.36973 103.358 4.61035C103.062 3.81348 102.655 3.14316 101.984 2.47754C101.319 1.81191 100.648 1.39941 99.8609 1.09473C99.0969 0.799414 98.225 0.593164 96.95 0.536914C95.6656 0.475977 95.2578 0.461914 92 0.461914Z" fill="#9CA3AF"/>
<path d="M92 6.29785C88.5969 6.29785 85.8359 9.05879 85.8359 12.4619C85.8359 15.865 88.5969 18.626 92 18.626C95.4031 18.626 98.1641 15.865 98.1641 12.4619C98.1641 9.05879 95.4031 6.29785 92 6.29785ZM92 16.4604C89.7922 16.4604 88.0016 14.6697 88.0016 12.4619C88.0016 10.2541 89.7922 8.46348 92 8.46348C94.2078 8.46348 95.9984 10.2541 95.9984 12.4619C95.9984 14.6697 94.2078 16.4604 92 16.4604Z" fill="#9CA3AF"/>
<path d="M99.8469 6.05332C99.8469 6.8502 99.2 7.49239 98.4078 7.49239C97.6109 7.49239 96.9688 6.84551 96.9688 6.05332C96.9688 5.25645 97.6156 4.61426 98.4078 4.61426C99.2 4.61426 99.8469 5.26113 99.8469 6.05332Z" fill="#9CA3AF"/>
</g>
<g clip-path="url(#clip2_7886_76)">
<path d="M142.223 0.461914H121.772C120.792 0.461914 120 1.23535 120 2.1916V22.7275C120 23.6838 120.792 24.4619 121.772 24.4619H142.223C143.203 24.4619 144 23.6838 144 22.7322V2.1916C144 1.23535 143.203 0.461914 142.223 0.461914ZM127.12 20.9135H123.558V9.45723H127.12V20.9135ZM125.339 7.89629C124.195 7.89629 123.272 6.97285 123.272 5.83379C123.272 4.69473 124.195 3.77129 125.339 3.77129C126.478 3.77129 127.402 4.69473 127.402 5.83379C127.402 6.96816 126.478 7.89629 125.339 7.89629ZM140.452 20.9135H136.894V15.3447C136.894 14.0182 136.87 12.3072 135.042 12.3072C133.191 12.3072 132.909 13.7557 132.909 15.251V20.9135H129.356V9.45723H132.769V11.0229H132.816C133.289 10.1229 134.452 9.17129 136.181 9.17129C139.786 9.17129 140.452 11.5432 140.452 14.6275V20.9135Z" fill="#9CA3AF"/>
</g>
<defs>
<clipPath id="clip0_7886_76">
<rect width="24" height="24" fill="white" transform="translate(0 0.461914)"/>
</clipPath>
<clipPath id="clip1_7886_76">
<rect width="24" height="24" fill="white" transform="translate(80 0.461914)"/>
</clipPath>
<clipPath id="clip2_7886_76">
<rect width="24" height="24" fill="white" transform="translate(120 0.461914)"/>
</clipPath>
</defs>
</svg>
